<svg xmlns="http://www.w3.org/2000/svg" xmlns:xlink="http://www.w3.org/1999/xlink">
<path fill="#6e6e6e" d="M4.844,12.007l0.423-0.964l2.777,0.507l1.717-0.556l0.477-1.442 L8.446,8.036L4,6l-4.155,5.978l6.766,10.223l-1.16,8.647h5.133L10.9,20.426l-3.618-6.693L4.844,12.007z M17.849,17.032L17.06,17.9 h-1.185l-0.868-1.026l-3.725-2.775l-2.466-0.382l4.673,6.33l-0.014,1.402l-1.321,1.182l0.035,8.218h4.083l-0.158-7.342 l2.525-3.473l0.238-2.765l-0.316-0.631L17.849,17.032z M16.823,16.242l4.501-4.026l-1.579-2.369L15,15L16.823,16.242z M14,14 l4.638-5.732l-1.974-2.132L11,12L14,14z M10.9,2.11l-2.368-1.5L5,5l3,1L10.9,2.11z M12,9l3.244-4.048l-2.765-1.895L9,7L12,9z"></path>
<path fill="#6e6e6e" d="M48.417,15.542c0,3.408-0.894,5.984-2.681,7.729c-1.787,1.746-4.412,2.618-7.875,2.618H33V5.583h5.486 c3.241,0,5.706,0.847,7.396,2.542C47.571,9.819,48.417,12.292,48.417,15.542z M46.875,15.597c0-2.907-0.739-5.095-2.215-6.563 c-1.477-1.467-3.646-2.202-6.507-2.202h-3.736v17.806h3.361C43.842,24.639,46.875,21.625,46.875,15.597z"></path>
<path fill="#6e6e6e" d="M53.083,25.889V5.583H54.5v20.305H53.083z"></path>
<path fill="#6e6e6e" d="M69.181,25.889l-7.57-18.75H61.5c0.074,1.148,0.111,2.324,0.111,3.528v15.222H60.25V5.583h2.194 l7.194,17.861h0.083l7.194-17.861h2.139v20.305h-1.43V10.5c0-1.074,0.055-2.185,0.167-3.333H77.68l-7.597,18.722H69.181z"></path>
<path fill="#6e6e6e" d="M86.208,25.889h-1.417V5.583h11.125v1.305h-9.708V15.5h9.167v1.319h-9.167V25.889z"></path>
<path fill="#6e6e6e" d="M99.069,25.889V5.583h1.417v20.305H99.069z"></path>
<path fill="#6e6e6e" d="M117.443,20.653c0,1.694-0.623,3.037-1.868,4.027c-1.245,0.991-2.9,1.486-4.965,1.486 c-2.481,0-4.384-0.273-5.708-0.819V23.93c1.463,0.621,3.329,0.931,5.597,0.931c1.667,0,2.988-0.382,3.966-1.146 c0.977-0.764,1.465-1.766,1.465-3.007c0-0.768-0.162-1.405-0.486-1.91c-0.324-0.504-0.852-0.965-1.583-1.382 s-1.806-0.866-3.222-1.347c-2.074-0.713-3.507-1.484-4.299-2.313c-0.792-0.829-1.188-1.933-1.188-3.313 c0-1.519,0.595-2.757,1.785-3.715c1.19-0.958,2.72-1.438,4.59-1.438c1.908,0,3.699,0.361,5.375,1.083l-0.515,1.222 c-1.685-0.704-3.296-1.056-4.833-1.056c-1.5,0-2.694,0.347-3.583,1.042c-0.889,0.695-1.333,1.639-1.333,2.833 c0,0.75,0.136,1.366,0.41,1.847c0.273,0.481,0.72,0.915,1.34,1.299c0.62,0.384,1.685,0.845,3.194,1.382 c1.583,0.546,2.773,1.076,3.57,1.59c0.796,0.514,1.377,1.097,1.742,1.75C117.261,18.938,117.443,19.727,117.443,20.653z"></path>
<path fill="#6e6e6e" d="M127.027,25.889h-1.431V6.917h-6.598V5.583h14.625v1.333h-6.597V25.889z"></path>
</svg>
